<svg width="1129" height="649" xmlns="http://www.w3.org/2000/svg"><g><path d="M-19,-98L-103,323L-33,45Z" fill="#f1feec" stroke="#f1feec"/><path d="M-19,-98L-33,45L74,-53Z" fill="#f5fbf3" stroke="#f5fbf3"/><path d="M-19,-98L74,-53L283,-124Z" fill="#eaf7e7" stroke="#eaf7e7"/><path d="M74,-53L-33,45L48,92Z" fill="#effaec" stroke="#effaec"/><path d="M74,-53L48,92L261,24Z" fill="#e5f6e1" stroke="#e5f6e1"/><path d="M74,-53L261,24L283,-124Z" fill="#dff3dc" stroke="#dff3dc"/><path d="M283,-124L261,24L371,-99Z" fill="#d0eccf" stroke="#d0eccf"/><path d="M283,-124L371,-99L643,-95Z" fill="#bde3bd" stroke="#bde3bd"/><path d="M283,-124L643,-95L1292,-116Z" fill="#92caa4" stroke="#92caa4"/><path d="M371,-99L261,24L337,71Z" fill="#ceebcc" stroke="#ceebcc"/><path d="M371,-99L337,71L500,45Z" fill="#c1e5c0" stroke="#c1e5c0"/><path d="M371,-99L500,45L580,-76Z" fill="#b5dfb8" stroke="#b5dfb8"/><path d="M371,-99L580,-76L643,-95Z" fill="#aedcb5" stroke="#aedcb5"/><path d="M580,-76L500,45L672,100Z" fill="#a3d8ad" stroke="#a3d8ad"/><path d="M580,-76L672,100L643,-95Z" fill="#9fd5ad" stroke="#9fd5ad"/><path d="M643,-95L672,100L832,-45Z" fill="#94cda6" stroke="#94cda6"/><path d="M643,-95L832,-45L1292,-116Z" fill="#80b494" stroke="#80b494"/><path d="M832,-45L672,100L811,91Z" fill="#88c699" stroke="#88c699"/><path d="M832,-45L811,91L1002,-16Z" fill="#81b996" stroke="#81b996"/><path d="M832,-45L1002,-16L1132,-46Z" fill="#80ac8e" stroke="#80ac8e"/><path d="M832,-45L1132,-46L1292,-116Z" fill="#80a086" stroke="#80a086"/><path d="M1002,-16L811,91L989,125Z" fill="#77b388" stroke="#77b388"/><path d="M1002,-16L989,125L1158,33Z" fill="#7aa581" stroke="#7aa581"/><path d="M1002,-16L1158,33L1132,-46Z" fill="#809f85" stroke="#809f85"/><path d="M1132,-46L1158,33L1292,-116Z" fill="#809380" stroke="#809380"/><path d="M1292,-116L1158,33L1335,87Z" fill="#808b80" stroke="#808b80"/><path d="M-33,45L-103,323L-18,283Z" fill="#d0f7cd" stroke="#d0f7cd"/><path d="M-33,45L-18,283L48,92Z" fill="#e2fbdc" stroke="#e2fbdc"/><path d="M48,92L-18,283L97,210Z" fill="#ccf4c8" stroke="#ccf4c8"/><path d="M48,92L97,210L261,24Z" fill="#d9f6d3" stroke="#d9f6d3"/><path d="M261,24L97,210L285,262Z" fill="#c2efbc" stroke="#c2efbc"/><path d="M261,24L285,262L337,71Z" fill="#c3edbc" stroke="#c3edbc"/><path d="M337,71L285,262L386,265Z" fill="#a5e4a2" stroke="#a5e4a2"/><path d="M337,71L386,265L500,45Z" fill="#b1e5ac" stroke="#b1e5ac"/><path d="M500,45L386,265L571,187Z" fill="#99dc99" stroke="#99dc99"/><path d="M500,45L571,187L672,100Z" fill="#99d89f" stroke="#99d89f"/><path d="M672,100L571,187L636,206Z" fill="#84d28f" stroke="#84d28f"/><path d="M672,100L636,206L806,270Z" fill="#71c981" stroke="#71c981"/><path d="M672,100L806,270L811,91Z" fill="#77c587" stroke="#77c587"/><path d="M811,91L806,270L935,248Z" fill="#5db771" stroke="#5db771"/><path d="M811,91L935,248L989,125Z" fill="#67b379" stroke="#67b379"/><path d="M989,125L935,248L1078,279Z" fill="#53a460" stroke="#53a460"/><path d="M989,125L1078,279L1158,33Z" fill="#6aa06d" stroke="#6aa06d"/><path d="M1158,33L1078,279L1268,205Z" fill="#61935f" stroke="#61935f"/><path d="M1158,33L1268,205L1335,87Z" fill="#728c6e" stroke="#728c6e"/><path d="M1335,87L1268,205L1234,360Z" fill="#538252" stroke="#538252"/><path d="M1335,87L1234,360L1291,664Z" fill="#236d35" stroke="#236d35"/><path d="M1335,87L1291,664L1312,793Z" fill="#01481b" stroke="#01481b"/><path d="M-18,283L-103,323L72,506Z" fill="#9ce1ac" stroke="#9ce1ac"/><path d="M-18,283L72,506L82,316Z" fill="#95dea5" stroke="#95dea5"/><path d="M-18,283L82,316L97,210Z" fill="#b3edb3" stroke="#b3edb3"/><path d="M97,210L82,316L206,338Z" fill="#a4e7a7" stroke="#a4e7a7"/><path d="M97,210L206,338L285,262Z" fill="#a3e7a2" stroke="#a3e7a2"/><path d="M285,262L206,338L379,414Z" fill="#80d78b" stroke="#80d78b"/><path d="M285,262L379,414L386,265Z" fill="#7ed687" stroke="#7ed687"/><path d="M386,265L379,414L576,388Z" fill="#62c973" stroke="#62c973"/><path d="M386,265L576,388L571,187Z" fill="#70d07a" stroke="#70d07a"/><path d="M571,187L576,388L636,206Z" fill="#6acd77" stroke="#6acd77"/><path d="M636,206L576,388L723,426Z" fill="#4abd67" stroke="#4abd67"/><path d="M636,206L723,426L806,270Z" fill="#4cbb66" stroke="#4cbb66"/><path d="M806,270L723,426L822,316Z" fill="#3aae5b" stroke="#3aae5b"/><path d="M806,270L822,316L935,248Z" fill="#45af5e" stroke="#45af5e"/><path d="M935,248L822,316L960,323Z" fill="#3aa657" stroke="#3aa657"/><path d="M935,248L960,323L1078,279Z" fill="#3e9e51" stroke="#3e9e51"/><path d="M1078,279L960,323L1073,387Z" fill="#309146" stroke="#309146"/><path d="M1078,279L1073,387L1234,360Z" fill="#2c843c" stroke="#2c843c"/><path d="M1078,279L1234,360L1268,205Z" fill="#3f8643" stroke="#3f8643"/><path d="M-103,323L-63,730L-52,582Z" fill="#7fba92" stroke="#7fba92"/><path d="M-103,323L-52,582L72,506Z" fill="#85ca9b" stroke="#85ca9b"/><path d="M82,316L72,506L214,468Z" fill="#7dce91" stroke="#7dce91"/><path d="M82,316L214,468L206,338Z" fill="#85d895" stroke="#85d895"/><path d="M206,338L214,468L379,414Z" fill="#70cc83" stroke="#70cc83"/><path d="M379,414L214,468L413,482Z" fill="#5bbb71" stroke="#5bbb71"/><path d="M379,414L413,482L576,388Z" fill="#4eb966" stroke="#4eb966"/><path d="M576,388L413,482L549,534Z" fill="#3dab5a" stroke="#3dab5a"/><path d="M576,388L549,534L683,487Z" fill="#2fa453" stroke="#2fa453"/><path d="M576,388L683,487L723,426Z" fill="#2ea956" stroke="#2ea956"/><path d="M723,426L683,487L777,534Z" fill="#1b9647" stroke="#1b9647"/><path d="M723,426L777,534L822,316Z" fill="#239e4d" stroke="#239e4d"/><path d="M822,316L777,534L969,517Z" fill="#138d40" stroke="#138d40"/><path d="M822,316L969,517L960,323Z" fill="#1f9748" stroke="#1f9748"/><path d="M960,323L969,517L1073,387Z" fill="#19873c" stroke="#19873c"/><path d="M1073,387L969,517L1167,513Z" fill="#0b6f2a" stroke="#0b6f2a"/><path d="M1073,387L1167,513L1234,360Z" fill="#16722d" stroke="#16722d"/><path d="M1234,360L1167,513L1243,554Z" fill="#0a5d22" stroke="#0a5d22"/><path d="M1234,360L1243,554L1291,664Z" fill="#004c19" stroke="#004c19"/><path d="M-52,582L-63,730L99,722Z" fill="#779675" stroke="#779675"/><path d="M-52,582L99,722L72,506Z" fill="#72a77b" stroke="#72a77b"/><path d="M72,506L99,722L251,666Z" fill="#679c69" stroke="#679c69"/><path d="M72,506L251,666L214,468Z" fill="#63ae74" stroke="#63ae74"/><path d="M214,468L251,666L413,482Z" fill="#53aa67" stroke="#53aa67"/><path d="M413,482L251,666L423,698Z" fill="#48924f" stroke="#48924f"/><path d="M413,482L423,698L549,534Z" fill="#39964b" stroke="#39964b"/><path d="M549,534L423,698L544,665Z" fill="#32833c" stroke="#32833c"/><path d="M549,534L544,665L645,699Z" fill="#277e37" stroke="#277e37"/><path d="M549,534L645,699L683,487Z" fill="#20893e" stroke="#20893e"/><path d="M683,487L645,699L777,534Z" fill="#168238" stroke="#168238"/><path d="M777,534L645,699L785,682Z" fill="#126e29" stroke="#126e29"/><path d="M777,534L785,682L969,517Z" fill="#07702b" stroke="#07702b"/><path d="M969,517L785,682L1032,725Z" fill="#005717" stroke="#005717"/><path d="M969,517L1032,725L1159,637Z" fill="#004b0f" stroke="#004b0f"/><path d="M969,517L1159,637L1167,513Z" fill="#005718" stroke="#005718"/><path d="M1167,513L1159,637L1243,554Z" fill="#004911" stroke="#004911"/><path d="M1243,554L1159,637L1291,664Z" fill="#003808" stroke="#003808"/><path d="M-63,730L-36,867L36,816Z" fill="#797d77" stroke="#797d77"/><path d="M-63,730L36,816L99,722Z" fill="#748272" stroke="#748272"/><path d="M99,722L36,816L275,835Z" fill="#677664" stroke="#677664"/><path d="M99,722L275,835L251,666Z" fill="#5f7e5c" stroke="#5f7e5c"/><path d="M251,666L275,835L423,698Z" fill="#4f784e" stroke="#4f784e"/><path d="M423,698L275,835L358,846Z" fill="#4a6949" stroke="#4a6949"/><path d="M423,698L358,846L579,842Z" fill="#3a623b" stroke="#3a623b"/><path d="M423,698L579,842L544,665Z" fill="#316a36" stroke="#316a36"/><path d="M544,665L579,842L645,699Z" fill="#266431" stroke="#266431"/><path d="M645,699L579,842L651,859Z" fill="#21562e" stroke="#21562e"/><path d="M645,699L651,859L802,800Z" fill="#164f28" stroke="#164f28"/><path d="M645,699L802,800L785,682Z" fill="#125824" stroke="#125824"/><path d="M785,682L802,800L1032,725Z" fill="#044619" stroke="#044619"/><path d="M1032,725L802,800L1028,817Z" fill="#003112" stroke="#003112"/><path d="M1032,725L1028,817L1136,834Z" fill="#002308" stroke="#002308"/><path d="M1032,725L1136,834L1159,637Z" fill="#002b04" stroke="#002b04"/><path d="M1159,637L1136,834L1291,664Z" fill="#002500" stroke="#002500"/><path d="M1291,664L1136,834L1312,793Z" fill="#001200" stroke="#001200"/><path d="M-36,867L651,859L358,846Z" fill="#4e6b4c" stroke="#4e6b4c"/><path d="M-36,867L358,846L275,835Z" fill="#60735d" stroke="#60735d"/><path d="M-36,867L275,835L36,816Z" fill="#6c786a" stroke="#6c786a"/><path d="M358,846L651,859L579,842Z" fill="#2f5d35" stroke="#2f5d35"/><path d="M651,859L1136,834L1028,817Z" fill="#003313" stroke="#003313"/><path d="M651,859L1028,817L802,800Z" fill="#09401d" stroke="#09401d"/></g></svg>